<svg width="24" height="26" viewBox="0 0 24 26" fill="none" xmlns="http://www.w3.org/2000/svg">
<path d="M19 4C19.5304 4 20.0391 4.21071 20.4142 4.58579C20.7893 4.96086 21 5.46957 21 6V20C21 20.5304 20.7893 21.0391 20.4142 21.4142C20.0391 21.7893 19.5304 22 19 22H5C4.46957 22 3.96086 21.7893 3.58579 21.4142C3.21071 21.0391 3 20.5304 3 20V6C3 5.46957 3.21071 4.96086 3.58579 4.58579C3.96086 4.21071 4.46957 4 5 4H19ZM18.5 19.5V14.2C18.5 13.3354 18.1565 12.5062 17.5452 11.8948C16.9338 11.2835 16.1046 10.94 15.24 10.94C14.39 10.94 13.4 11.46 12.92 12.24V11.13H10.13V19.5H12.92V14.57C12.92 13.8 13.54 13.17 14.31 13.17C14.6813 13.17 15.0374 13.3175 15.2999 13.5801C15.5625 13.8426 15.71 14.1987 15.71 14.57V19.5H18.5ZM6.88 9.56C7.32556 9.56 7.75288 9.383 8.06794 9.06794C8.383 8.75288 8.56 8.32556 8.56 7.88C8.56 6.95 7.81 6.19 6.88 6.19C6.43178 6.19 6.00193 6.36805 5.68499 6.68499C5.36805 7.00193 5.19 7.43178 5.19 7.88C5.19 8.81 5.95 9.56 6.88 9.56ZM8.27 19.5V11.13H5.5V19.5H8.27Z" fill="#D6A154"/>
</svg>
