<svg width="24" height="24" viewBox="0 0 24 24" fill="none" xmlns="http://www.w3.org/2000/svg">
<path d="M18.875 4.71875L15.9375 4.0625C15.25 3.90625 14.5625 4.25 14.3125 4.875L12.9375 8.0625C12.6875 8.625 12.8438 9.3125 13.3438 9.71875L14.5938 10.75C13.7188 12.375 12.3438 13.7188 10.7188 14.625L9.6875 13.375C9.28125 12.875 8.59375 12.7188 8.03125 12.9688L4.84375 14.3125C4.21875 14.5938 3.875 15.2812 4.03125 15.9688L4.6875 18.9062C4.84375 19.5625 5.4375 20 6.09375 20C13.75 20 20 13.8125 20 6.125C20 5.46875 19.5312 4.875 18.875 4.71875ZM6.15625 18.5L5.5 15.6875L8.5625 14.375L10.3125 16.5C13.4062 15.0312 15 13.4375 16.4688 10.3438L14.3438 8.59375L15.6562 5.53125L18.5 6.1875C18.4688 12.9688 12.9375 18.4688 6.15625 18.5Z" fill="#D6A154"/>
</svg>
